<?xml version="1.0" encoding="utf-8"?>
<!-- Generator: Adobe Illustrator 27.0.0, SVG Export Plug-In . SVG Version: 6.00 Build 0)  -->
<svg version="1.1" id="레이어_1" xmlns="http://www.w3.org/2000/svg" xmlns:xlink="http://www.w3.org/1999/xlink" x="0px"
	 y="0px" viewBox="0 0 500 500" style="enable-background:new 0 0 500 500;" xml:space="preserve">
<style type="text/css">
	.st0{fill:none;stroke:#000000;stroke-width:5;stroke-linecap:round;stroke-miterlimit:10;}
</style>
<ellipse transform="matrix(0.937 -0.3493 0.3493 0.937 -66.3075 50.1422)" cx="105.89" cy="208.94" rx="37.41" ry="48.16"/>
<ellipse transform="matrix(0.9963 -0.0864 0.0864 0.9963 -11.2301 17.4741)" cx="196.29" cy="138.5" rx="41.64" ry="53.6"/>
<ellipse transform="matrix(0.4522 -0.8919 0.8919 0.4522 28.9994 465.1063)" cx="393.15" cy="208.94" rx="48.16" ry="37.41"/>
<ellipse transform="matrix(0.1589 -0.9873 0.9873 0.1589 118.5184 416.1048)" cx="303.46" cy="138.5" rx="53.6" ry="41.64"/>
<g>
	<path d="M249.77,241.88c-6.67-2.69-11.51-3.86-11.51-3.86c-65.6-34.23-44.52,19.17-38.88,31.76c0.7,1.55,0.31,3.37-0.95,4.51
		l-23.67,21.55c-1.15,1.04-2.84,1.21-4.17,0.42c-70.08-41.1-36.4,36.53-36.4,36.53C154.67,439.62,247.41,352,247.41,352
		c1.39-1.26,2.73-2.51,4.04-3.75C234.61,332.41,177.61,272.07,249.77,241.88z"/>
	<path d="M378.45,275.11c-5.46-3.3-17.56,5.27-27.91,11.14c-6.99,3.97-14.93,6.63-18.58,8.79c-1.46,0.87-3.31,0.69-4.59-0.43
		l-24.11-21.05c-1.17-1.02-1.68-2.76-0.9-4.1c11.66-20.01-20.36-10.78-25.41-16.04c-4.49-4.69,17.65-28.53,9.28-26.27
		c-10.25,2.78-20.47,8.19-23.45,9.83c-0.56,0.31-0.86,0.48-0.86,0.48c-4.41,1.38-8.45,2.85-12.15,4.4
		c24.13,9.74,72.2,39.48,1.67,106.37c2.65,2.49,4.3,3.89,4.3,3.89c98.91,86.37,112.2-22.08,112.2-22.08
		C377.9,304.15,383.69,278.28,378.45,275.11z"/>
</g>
<line class="st0" x1="287.33" y1="229.55" x2="302.34" y2="261.59"/>
</svg>
