<svg width="226" height="78" viewBox="0 0 226 78" fill="none" xmlns="http://www.w3.org/2000/svg">
<path d="M19.1438 39.633C22.1638 38.5071 23.4371 34.4427 21.9878 30.5548C20.5384 26.6669 16.9153 24.4279 13.8952 25.5537C10.8752 26.6795 9.60185 30.7439 11.0512 34.6318C12.5005 38.5197 16.1237 40.7588 19.1438 39.633Z" fill="black"/>
<path d="M31.3452 29.937C34.9195 29.627 37.4936 25.646 37.0946 21.0451C36.6956 16.4442 33.4746 12.9657 29.9004 13.2757C26.3261 13.5856 23.752 17.5667 24.151 22.1676C24.55 26.7685 27.771 30.247 31.3452 29.937Z" fill="black"/>
<path d="M66.5342 35.2334C68.4105 31.5327 67.6012 27.3511 64.7265 25.8936C61.8518 24.4361 58.0003 26.2546 56.124 29.9554C54.2477 33.6561 55.0571 37.8377 57.9318 39.2952C60.8065 40.7527 64.6579 38.9342 66.5342 35.2334Z" fill="black"/>
<path d="M53.7561 22.6392C54.4899 18.0799 52.2134 13.9217 48.6714 13.3516C45.1294 12.7815 41.6632 16.0155 40.9294 20.5748C40.1956 25.1341 42.4721 29.2923 46.0141 29.8624C49.5561 30.4325 53.0223 27.1985 53.7561 22.6392Z" fill="black"/>
<path d="M38.9641 37.7333C37.9236 37.3136 37.1686 37.1311 37.1686 37.1311C26.935 31.7912 30.2234 40.1216 31.1033 42.0857C31.2125 42.3275 31.1516 42.6114 30.9551 42.7892L27.2626 46.151C27.0832 46.3133 26.8195 46.3398 26.612 46.2166C15.6796 39.805 20.9336 51.9152 20.9336 51.9152C24.1285 68.5807 38.596 54.912 38.596 54.912C38.8128 54.7154 39.0218 54.5204 39.2262 54.327C36.5992 51.856 27.7072 42.4429 38.9641 37.7333Z" fill="black"/>
<path d="M59.0382 42.9172C58.1864 42.4024 56.2988 43.7393 54.6842 44.655C53.5938 45.2743 52.3552 45.6893 51.7858 46.0262C51.558 46.162 51.2694 46.1339 51.0697 45.9592L47.3086 42.6754C47.126 42.5162 47.0465 42.2448 47.1682 42.0358C48.9871 38.9142 43.992 40.3541 43.2042 39.5335C42.5038 38.8019 45.9576 35.0828 44.6519 35.4354C43.0529 35.8691 41.4586 36.713 40.9937 36.9689C40.9063 37.0172 40.8595 37.0438 40.8595 37.0438C40.1716 37.259 39.5413 37.4884 38.9641 37.7302C42.7284 39.2496 50.2273 43.889 39.2246 54.3239C39.638 54.7123 39.8954 54.9307 39.8954 54.9307C55.3254 68.4044 57.3986 51.4862 57.3986 51.4862C58.9524 47.4474 59.8556 43.4117 59.0382 42.9172Z" fill="black"/>
<path d="M44.8235 35.8098L47.165 40.808" stroke="black" stroke-width="5" stroke-miterlimit="10" stroke-linecap="round"/>
<path d="M99.68 38.04C99.6533 38.4133 99.5733 38.6667 99.44 38.8C99.3067 38.9333 99.0533 39.0267 98.68 39.08C96.52 39.2933 94.32 39.4667 92.08 39.6C89.84 39.7067 87.68 39.7467 85.6 39.72C84.4267 39.72 83.5067 39.4 82.84 38.76C82.2 38.12 81.8533 37.2667 81.8 36.2C81.72 33.9067 81.68 31.6533 81.68 29.44C81.7067 27.2 81.7467 25.24 81.8 23.56C81.8 22.9733 82.0667 22.6533 82.6 22.6C85.1067 22.36 87.4533 22.2267 89.64 22.2C91.8267 22.1733 94.0267 22.2533 96.24 22.44C97.52 22.5467 98.4267 22.92 98.96 23.56C99.4933 24.2 99.7867 25.2133 99.84 26.6C99.8667 26.9733 99.88 27.3867 99.88 27.84C99.88 28.2933 99.88 28.7733 99.88 29.28H106.08V22.36C106.08 21.6933 106.413 21.36 107.08 21.36H109.76C110.427 21.36 110.76 21.6933 110.76 22.36V40.68C110.76 41.3467 110.427 41.68 109.76 41.68H107.08C106.413 41.68 106.08 41.3467 106.08 40.68V33.04H99.84C99.8133 33.84 99.7867 34.6667 99.76 35.52C99.76 36.3467 99.7333 37.1867 99.68 38.04ZM95.12 35.64C95.2 34.0133 95.24 32.5067 95.24 31.12C95.24 29.7333 95.2267 28.44 95.2 27.24C95.2 26.84 95.1333 26.56 95 26.4C94.8667 26.2133 94.6133 26.1067 94.24 26.08C91.6267 25.92 89.0267 25.92 86.44 26.08C86.4133 26.88 86.3867 27.6267 86.36 28.32C86.36 29.0133 86.36 29.72 86.36 30.44C86.36 31.16 86.36 31.9067 86.36 32.68C86.3867 33.4533 86.4267 34.2933 86.48 35.2C86.48 35.7333 86.7467 36 87.28 36C88.6667 36 89.9867 35.9733 91.24 35.92C92.4933 35.8667 93.7867 35.7733 95.12 35.64ZM85 50C85 48.8267 85.2933 47.7733 85.88 46.84C86.4933 45.88 87.36 45.0667 88.48 44.4C89.6 43.7067 90.9733 43.1867 92.6 42.84C94.2267 42.4667 96.08 42.28 98.16 42.28C100.24 42.28 102.093 42.4667 103.72 42.84C105.347 43.1867 106.72 43.7067 107.84 44.4C108.96 45.0667 109.813 45.88 110.4 46.84C111.013 47.7733 111.32 48.8267 111.32 50C111.32 51.1733 111.013 52.2267 110.4 53.16C109.813 54.12 108.96 54.9333 107.84 55.6C106.72 56.2933 105.347 56.8133 103.72 57.16C102.093 57.5333 100.24 57.72 98.16 57.72C96.08 57.72 94.2267 57.5333 92.6 57.16C90.9733 56.8133 89.6 56.2933 88.48 55.6C87.36 54.9333 86.4933 54.12 85.88 53.16C85.2933 52.2267 85 51.1733 85 50ZM89.76 50C89.76 51.2267 90.5067 52.1867 92 52.88C93.52 53.6 95.5733 53.96 98.16 53.96C100.747 53.96 102.787 53.6 104.28 52.88C105.8 52.1867 106.56 51.2267 106.56 50C106.56 48.7733 105.8 47.8133 104.28 47.12C102.787 46.4 100.747 46.04 98.16 46.04C95.5733 46.04 93.52 46.4 92 47.12C90.5067 47.8133 89.76 48.7733 89.76 50ZM128.957 41.6C129.384 41.0133 129.784 40.44 130.157 39.88C130.557 39.2933 130.944 38.7067 131.317 38.12C130.57 37.4 129.85 36.7467 129.157 36.16C128.464 35.5733 127.73 34.9733 126.957 34.36C125.357 37.6133 123.424 40.7867 121.157 43.88C120.81 44.3333 120.41 44.3733 119.957 44L117.677 42.16C117.25 41.8133 117.224 41.4 117.597 40.92C119.624 38.12 121.37 35.2933 122.837 32.44C124.33 29.5867 125.584 26.48 126.597 23.12C126.73 22.6133 127.077 22.44 127.637 22.6L130.437 23.44C130.944 23.6 131.117 23.92 130.957 24.4C130.61 25.4667 130.25 26.52 129.877 27.56C129.504 28.6 129.09 29.64 128.637 30.68C129.57 31.32 130.41 31.9333 131.157 32.52C131.904 33.1067 132.677 33.7867 133.477 34.56C134.41 32.9333 135.264 31.2267 136.037 29.44C136.81 27.6267 137.544 25.64 138.237 23.48C138.344 23.1867 138.464 23.0133 138.597 22.96C138.757 22.88 138.984 22.88 139.277 22.96L141.997 23.76C142.504 23.92 142.677 24.2533 142.517 24.76C142.144 25.88 141.77 26.96 141.397 28C141.024 29.04 140.624 30.0533 140.197 31.04C141.904 32.5333 143.45 33.9867 144.837 35.4C146.25 36.8133 147.664 38.4133 149.077 40.2C149.477 40.7067 149.424 41.16 148.917 41.56L147.037 43.08C146.77 43.2933 146.544 43.3733 146.357 43.32C146.197 43.2667 146.01 43.0933 145.797 42.8C144.677 41.2267 143.517 39.8267 142.317 38.6C141.144 37.3467 139.85 36.08 138.437 34.8C137.61 36.4267 136.717 38.0133 135.757 39.56C134.824 41.1067 133.797 42.6933 132.677 44.32C132.33 44.7733 131.944 44.84 131.517 44.52L129.117 42.8C128.664 42.48 128.61 42.08 128.957 41.6ZM116.477 51.28C116.477 50.5333 116.85 50.16 117.597 50.16H148.917C149.584 50.16 149.917 50.5333 149.917 51.28V52.8C149.917 53.5467 149.584 53.92 148.917 53.92H117.597C116.85 53.92 116.477 53.5467 116.477 52.8V51.28ZM177.034 22.36C177.034 21.6933 177.367 21.36 178.034 21.36H180.714C181.38 21.36 181.714 21.6933 181.714 22.36V25.48H186.874C187.62 25.48 187.994 25.8533 187.994 26.6V28C187.994 28.7467 187.62 29.12 186.874 29.12H181.714V32.68H186.874C187.62 32.68 187.994 33.0533 187.994 33.8V35.2C187.994 35.9467 187.62 36.32 186.874 36.32H181.714V40.68C181.714 41.3467 181.38 41.68 180.714 41.68H178.034C177.367 41.68 177.034 41.3467 177.034 40.68V22.36ZM160.274 23.8C160.087 25.4267 159.94 27.04 159.834 28.64C159.727 30.2133 159.7 31.8667 159.754 33.6C159.78 34.2133 159.927 34.6533 160.194 34.92C160.46 35.16 160.9 35.28 161.514 35.28C163.354 35.28 165.38 35.1867 167.594 35C169.834 34.7867 172.02 34.4933 174.154 34.12C174.82 33.9867 175.22 34.2933 175.354 35.04L175.594 36.64C175.647 36.9867 175.594 37.2667 175.434 37.48C175.274 37.6933 175.034 37.8267 174.714 37.88C172.34 38.3333 169.967 38.6667 167.594 38.88C165.22 39.0667 162.86 39.1467 160.514 39.12C158.674 39.0933 157.327 38.7467 156.474 38.08C155.647 37.4133 155.167 36.3067 155.034 34.76C154.954 33.7467 154.914 32.7333 154.914 31.72C154.94 30.68 154.98 29.6667 155.034 28.68C155.087 27.6933 155.154 26.76 155.234 25.88C155.314 24.9733 155.394 24.16 155.474 23.44C155.554 22.8 155.914 22.4933 156.554 22.52L159.394 22.72C160.06 22.7733 160.354 23.1333 160.274 23.8ZM156.874 49.4C156.874 48.2267 157.154 47.1333 157.714 46.12C158.274 45.1067 159.087 44.2267 160.154 43.48C161.247 42.7333 162.58 42.1467 164.154 41.72C165.754 41.2933 167.58 41.08 169.634 41.08C171.687 41.08 173.5 41.2933 175.074 41.72C176.674 42.1467 178.007 42.7333 179.074 43.48C180.167 44.2267 180.994 45.1067 181.554 46.12C182.114 47.1333 182.394 48.2267 182.394 49.4C182.394 50.5733 182.114 51.6667 181.554 52.68C180.994 53.6933 180.167 54.5733 179.074 55.32C178.007 56.0667 176.674 56.6533 175.074 57.08C173.5 57.5067 171.687 57.72 169.634 57.72C167.58 57.72 165.754 57.5067 164.154 57.08C162.58 56.6533 161.247 56.0667 160.154 55.32C159.087 54.5733 158.274 53.6933 157.714 52.68C157.154 51.6667 156.874 50.5733 156.874 49.4ZM161.634 49.4C161.634 49.9867 161.807 50.56 162.154 51.12C162.5 51.6533 163.007 52.1333 163.674 52.56C164.367 52.9867 165.207 53.32 166.194 53.56C167.207 53.8267 168.354 53.96 169.634 53.96C170.914 53.96 172.047 53.8267 173.034 53.56C174.047 53.32 174.887 52.9867 175.554 52.56C176.247 52.1333 176.767 51.6533 177.114 51.12C177.46 50.56 177.634 49.9867 177.634 49.4C177.634 48.8133 177.46 48.2533 177.114 47.72C176.767 47.16 176.247 46.6667 175.554 46.24C174.887 45.8133 174.047 45.48 173.034 45.24C172.047 44.9733 170.914 44.84 169.634 44.84C168.354 44.84 167.207 44.9733 166.194 45.24C165.207 45.48 164.367 45.8133 163.674 46.24C163.007 46.6667 162.5 47.16 162.154 47.72C161.807 48.2533 161.634 48.8133 161.634 49.4ZM202.551 41.6C202.977 41.0133 203.377 40.44 203.751 39.88C204.151 39.2933 204.537 38.7067 204.911 38.12C204.164 37.4 203.444 36.7467 202.751 36.16C202.057 35.5733 201.324 34.9733 200.551 34.36C198.951 37.6133 197.017 40.7867 194.751 43.88C194.404 44.3333 194.004 44.3733 193.551 44L191.271 42.16C190.844 41.8133 190.817 41.4 191.191 40.92C193.217 38.12 194.964 35.2933 196.431 32.44C197.924 29.5867 199.177 26.48 200.191 23.12C200.324 22.6133 200.671 22.44 201.231 22.6L204.031 23.44C204.537 23.6 204.711 23.92 204.551 24.4C204.204 25.4667 203.844 26.52 203.471 27.56C203.097 28.6 202.684 29.64 202.231 30.68C203.164 31.32 204.004 31.9333 204.751 32.52C205.497 33.1067 206.271 33.7867 207.071 34.56C208.004 32.9333 208.857 31.2267 209.631 29.44C210.404 27.6267 211.137 25.64 211.831 23.48C211.937 23.1867 212.057 23.0133 212.191 22.96C212.351 22.88 212.577 22.88 212.871 22.96L215.591 23.76C216.097 23.92 216.271 24.2533 216.111 24.76C215.737 25.88 215.364 26.96 214.991 28C214.617 29.04 214.217 30.0533 213.791 31.04C215.497 32.5333 217.044 33.9867 218.431 35.4C219.844 36.8133 221.257 38.4133 222.671 40.2C223.071 40.7067 223.017 41.16 222.511 41.56L220.631 43.08C220.364 43.2933 220.137 43.3733 219.951 43.32C219.791 43.2667 219.604 43.0933 219.391 42.8C218.271 41.2267 217.111 39.8267 215.911 38.6C214.737 37.3467 213.444 36.08 212.031 34.8C211.204 36.4267 210.311 38.0133 209.351 39.56C208.417 41.1067 207.391 42.6933 206.271 44.32C205.924 44.7733 205.537 44.84 205.111 44.52L202.711 42.8C202.257 42.48 202.204 42.08 202.551 41.6ZM190.071 51.28C190.071 50.5333 190.444 50.16 191.191 50.16H222.511C223.177 50.16 223.511 50.5333 223.511 51.28V52.8C223.511 53.5467 223.177 53.92 222.511 53.92H191.191C190.444 53.92 190.071 53.5467 190.071 52.8V51.28Z" fill="black"/>
</svg>
